<?xml version="1.0" encoding="UTF-8"?>
<svg version="1.1" viewBox="0 0 2048 2048" width="512" height="512" xmlns="http://www.w3.org/2000/svg">
<path transform="translate(1521,153)" d="m0 0h22l27 1 29 3 31 6 28 8 21 8 20 9 23 12 19 12 19 14 11 9 10 9 8 7 12 12 7 8 12 14 13 18 11 17 12 21 12 26 8 21 8 27 5 24 3 20 2 23v1086l-4 35-6 29-7 24-8 22-8 18-10 20-12 20-12 17-11 14-11 13-15 16-8 7-12 11-16 12-15 11-22 13-23 12-24 10-24 8-28 7-23 4-34 3h-1078l-32-3-31-6-22-6-26-9-20-9-16-8-16-9-21-14-13-10-11-9-12-11-8-7-15-16-9-11-14-18-13-20-9-16-8-15-10-23-11-33-7-30-4-28-1-10-1-30v-1038l1-30 3-27 5-26 8-29 11-29 14-29 13-22 12-17 10-13 9-11 11-12 17-17 11-9 16-13 24-16 21-12 22-11 26-10 23-7 22-5 24-4 21-2z" fill="#FEFEFE"/>
<path transform="translate(341,574)" d="m0 0h578v998h52v-424l3-13 7-14 8-9 10-7 14-5 13-1 12 2 12 5 11 8 8 10 6 14 1 5 1 191v200l1 38h544l14 1 8 4 7 8 3 6 1 9-2 9-6 9-9 6-3 1-37 1h-1307l-35-1-8-3-7-6-5-10-1-9 3-10 4-6 7-6 5-2 8-1 78-1v-996z"/>
<path transform="translate(479,1178)" d="m0 0h296l21 1 13 4 10 6 8 7 8 12 4 12 1 13v227l-1 18-5 14-7 10-7 7-10 6-14 4-10 1h-316l-13-2-12-5-10-8-6-7-7-14-2-8-1-13v-230l2-16 5-12 7-9 7-7 10-6 13-4z"/>
<path transform="translate(446,679)" d="m0 0h368v394l-1 1h-78l-1-53-1-14-5-17-9-16-11-12-13-9-13-6-11-3-8-1h-68l-15 3-12 5-10 6-11 9-10 13-7 14-4 15-1 33v32l-1 1h-78l-1-2v-392z"/>
<path transform="translate(437,627)" d="m0 0h385l14 4 9 6 9 8 7 11 4 11 1 5v405l-3 14-6 12-9 10-10 7-12 4-5 1-370 1-15-1-13-4-11-7-7-7-7-11-4-11-1-8v-403l2-10 4-9 7-11 9-8 14-7zm9 52-1 2v392l4 1h75l1-2v-31l1-33 4-15 7-14 12-15 13-10 15-7 11-3 7-1h68l16 3 12 5 12 7 12 11 7 10 7 14 4 14 1 14 1 53h78l1-2v-393z" fill="#FEFEFE"/>
<path transform="translate(479,1178)" d="m0 0h296l21 1 13 4 10 6 8 7 8 12 4 12 1 13v227l-1 18-5 14-7 10-7 7-10 6-14 4-10 1h-316l-13-2-12-5-10-8-6-7-7-14-2-8-1-13v-230l2-16 5-12 7-9 7-7 10-6 13-4zm-7 53v237h314l1-1 1-235-1-1z" fill="#FEFEFE"/>
<path transform="translate(289,442)" d="m0 0h682v59l-4 9-8 8-7 3-11 1h-626l-10-2-8-5-6-7-2-4-1-6v-55z"/>
<path transform="translate(1654,454)" d="m0 0h1v148l-104 104h-2v-126l1-23 10-10 8-7 22-22 1-2h2l2-4 49-49 8-7z"/>
<path transform="translate(1496,612)" d="m0 0h1v148l-4 5-8 7-92 92h-1v-148l7-8 11-10 3-4h2v-2h2v-2l5-4 1-2h2l2-4 57-57 8-7z"/>
<path transform="translate(1338,769)" d="m0 0 2 4-1 145-96 96-4 5-5 3v-148l7-8 5-4 24-24 1-2h2l2-4 52-52 8-7z"/>
<path transform="translate(1180,928)" d="m0 0h2v146l-4 6-8 7-42 42h-2l-6-17-7-14-10-14-11-11-16-11-12-6-8-3 2-4 5-5 10-9 15-16 80-80 8-7z"/>
<path transform="translate(556,1362)" d="m0 0h151l12 2 8 6 4 5 4 10v7l-4 10-7 8-8 4-10 1h-158l-10-3-9-8-4-9-1-7 2-9 5-8 6-5 6-3z" fill="#FEFEFE"/>
<path transform="translate(545,1284)" d="m0 0h169l8 3 7 6 5 9 1 4v8l-4 9-7 8-7 4-8 1h-162l-9-3-8-7-5-10v-13l5-10 8-6z" fill="#FEFEFE"/>
<path transform="translate(600,994)" d="m0 0h59l10 3 9 8 4 9v60h-105v-58l3-8 4-6 8-6z"/>
<path transform="translate(1733,1572)" d="m0 0h52l11 2 7 4 6 7 3 7v13l-4 9-4 5-9 5-3 1h-64l-8-3-8-7-4-8-1-5v-7l4-11 7-7 8-4z"/>
<path transform="translate(1708,422)" d="m0 0 13 2 10 4 10 6 7 7 8 13 3 10 1 7v9l-4 16-9 14-39 39h-1v-126z"/>
<path transform="translate(1017,1153)" d="m0 0h14l10 5 6 8 3 7v10l-4 10-7 7-6 3-4 1h-11l-8-3-7-6-5-10v-13l5-10 7-6z" fill="#FEFEFE"/>
</svg>
